<svg id="amex_logo" xmlns="http://www.w3.org/2000/svg" width="54.002" height="53.95"><defs><clipPath id="clip-path"><path id="bluebox-55x54-a" d="M0 0v22.1h53.965V0z" transform="translate(0 .058)" fill="none"/></clipPath></defs><path id="Shape" d="M0 0v53.95h53.949V0z" transform="translate(.008)" fill="#889099"/><g id="text" transform="translate(0 16.675)"><g id="Clipped"><path id="bluebox-55x54-a-2" data-name="bluebox-55x54-a" d="M0 0v22.1h53.965V0z" transform="translate(0 .058)" fill="none"/><g id="Clipped-2" data-name="Clipped" clip-path="url(#clip-path)"><path id="Shape-2" data-name="Shape" d="M33.657 22.1L32.6 20.727V22.1h-4.182v-2.395a5.787 5.787 0 01-2.025.358h.063V22.1h-6l-.863-1.226-.839 1.226h-9.59v-9.429h9.626l.844 1.208.854-1.208h33.477v8.846a3.741 3.741 0 01-.691.332 4.259 4.259 0 01-1.453.248zm13.7-12.67l-.881-1.4v1.4h-5.835l-.517-1.354h-.962l-.508 1.354h-3.479a5.524 5.524 0 01-.987-.087 4.718 4.718 0 01-.615-.153 4.431 4.431 0 01-.485-.19 3.906 3.906 0 01-.464-.257v.686H26.81l-1.053-1.373v1.371H4.723L4.2 8.074h-.957l-.509 1.353H0V4.033L1.726 0h3.859l.855 1.927V0h4.731l.563 1.644L12.289 0h20.334v.737a4.071 4.071 0 01.559-.311 4.5 4.5 0 01.517-.2 4.816 4.816 0 01.7-.162A5.675 5.675 0 0135.275 0h6.231l.844 1.906V0h3.769l.962 1.508V0H51.4v9.427z" transform="translate(0 .058)" fill="#323642"/></g></g><g id="Group" transform="translate(10.3 14.223)"><path id="Shape-3" data-name="Shape" d="M37.954 6.358V5.086h3.261a.606.606 0 00.626-.644.589.589 0 00-.626-.618h-1.463a1.766 1.766 0 01-1.98-1.843A1.969 1.969 0 0139.961 0h3.28l-.564 1.29h-2.76a.6.6 0 00-.617.635.579.579 0 00.617.609h1.472a1.731 1.731 0 011.97 1.8A1.978 1.978 0 0141.17 6.36zm-6.048 0V5.086h3.26a.606.606 0 00.626-.644.589.589 0 00-.626-.618H33.7a1.766 1.766 0 01-1.977-1.844A1.97 1.97 0 0133.912 0h3.28l-.563 1.29h-2.762a.6.6 0 00-.617.635.579.579 0 00.617.609h1.472a1.731 1.731 0 011.971 1.8 1.978 1.978 0 01-2.19 2.026zm-6.013 0V0h5.086v1.29h-3.56v1.235H30.9V3.8h-3.481v1.277h3.559v1.281zm-2.606 0l-1.9-2.289h-.717v2.289h-1.525V0H22.6a1.988 1.988 0 012.2 2.016 1.971 1.971 0 01-1.725 2l2.116 2.344zm-10.662 0V0h3.5a2.032 2.032 0 012.2 2.125 2.082 2.082 0 01-2.253 2.134H14.15v2.1zm-2.244 0L8.819 4.314 7.257 6.358H5.4l2.538-3.179L5.395 0H7.3l1.555 2.016L10.418 0h1.852L9.736 3.152l2.552 3.206zM0 6.358V0h5.086v1.29h-3.56v1.235H5V3.8H1.526v1.277h3.56v1.281z" transform="translate(.344 .04)" fill="#889099"/></g><path id="Shape-4" data-name="Shape" d="M47.944 6.358L45.51 2.552l-.319-.526.019.526v3.806h-1.49V0h1.87l2.381 3.678.281.473-.018-.473V0h1.49v6.358zm-6.294 0l-.55-1.363h-3.019l-.535 1.363H35.92L38.643 0h2.008l2.715 6.358zm-6.657 0a2.824 2.824 0 01-2.933-3.124v-.109A2.871 2.871 0 0135.093 0h1.78v1.372h-1.652a1.582 1.582 0 00-1.644 1.762v.091A1.577 1.577 0 0035.239 5h.461l-.626 1.353zm-5.422 0V0H31.1v6.358zm-2.38 0l-1.9-2.289h-.717v2.289H23.05V0h3.45a1.989 1.989 0 012.2 2.017 1.971 1.971 0 01-1.726 2l2.116 2.341zm-10.345 0V0h5.086v1.29h-3.558v1.235h3.478V3.8h-3.478v1.259h3.559v1.3zm-2.733 0V2.007l.037-1.67-1.761 6.021h-1.381L9.246.3l.037 1.716v4.342H7.8V0h2.679L11.7 4.5 12.906 0h2.688v6.358zm-8.383 0l-.544-1.363H2.162l-.537 1.363H0L2.725 0h2.007l2.716 6.358z" transform="translate(.027 1.592)" fill="#889099"/></g></svg>