<svg id="ilo_light_announcements" data-name="ilo/light/announcements" xmlns="http://www.w3.org/2000/svg" width="60" height="60"><g id="Shape" fill="none" stroke-miterlimit="10"><path d="M34.563 22.889v-7.684A15.143 15.143 0 0025.03 1.143 19.764 19.764 0 0019.209 0a17.124 17.124 0 00-5.558 1.143 14.91 14.91 0 00-9.533 14.072v7.674L.19 30.931a1.864 1.864 0 001.673 2.684h11.5v.185a5.973 5.973 0 0011.947 0v-.182h11.508a1.864 1.864 0 001.673-2.684z" transform="translate(10.5 10.23)"/><path d="M19.336 37.77a3.978 3.978 0 003.973-3.973v-2.182H36.6l-4.036-8.264v-8.145c0-2.64-.783-5.188-2.264-7.373a13.094 13.094 0 00-5.987-4.823C23.526 2.72 21.145 2 19.209 2c-2.3 0-4.784.987-4.806.996l-.03.012A12.852 12.852 0 008.339 7.81a12.852 12.852 0 00-2.221 7.383v8.158l-4.036 8.264h13.28v2.182a3.978 3.978 0 003.974 3.973m0 2a5.973 5.973 0 01-5.974-5.973v-.182h-11.5A1.864 1.864 0 01.19 30.93l3.928-8.042v-7.674a14.91 14.91 0 019.533-14.072S16.468 0 19.21 0c2.741 0 5.82 1.143 5.82 1.143a15.143 15.143 0 019.534 14.062v7.684l3.928 8.042a1.864 1.864 0 01-1.673 2.684H25.31v.182a5.973 5.973 0 01-5.973 5.973z" fill="#46b843" transform="translate(10.5 10.23)"/></g><path id="Line_Copy" data-name="Line Copy" d="M15.357 43.268h28.572" fill="none" stroke="#46b843" stroke-linecap="square" stroke-miterlimit="10" stroke-width="2"/></svg>