<svg xmlns="http://www.w3.org/2000/svg" width="78.588" height="23.691"><g id="Bitcoin" transform="translate(-.026 -.02)" fill="#889099"><path id="path8316" d="M4.28 16.322c-.146 0-.385 0-.656-.01a9.594 9.594 0 01-1.068-.092 12.687 12.687 0 01-1.278-.249A6.471 6.471 0 010 15.516L3.593.5 6.811 0 5.524 5.33a5.04 5.04 0 01.83-.289 3.805 3.805 0 01.894-.1 3.949 3.949 0 011.723.351 3.5 3.5 0 011.207.951 4.011 4.011 0 01.7 1.4 6.421 6.421 0 01.228 1.735 6.958 6.958 0 01-.529 2.7 7.008 7.008 0 01-1.444 2.211 6.8 6.8 0 01-2.16 1.486 6.628 6.628 0 01-2.693.547zM6.481 7.5a3.841 3.841 0 00-.758.1 1.917 1.917 0 00-.842.435L3.511 13.7c.081.013.153.027.218.04a1.591 1.591 0 00.2.032 2.208 2.208 0 00.25.012h.374a2.843 2.843 0 001.371-.351 3.615 3.615 0 001.112-.94 4.749 4.749 0 00.736-1.334 4.521 4.521 0 00.271-1.55A3.039 3.039 0 007.71 8.06a1.311 1.311 0 00-1.229-.56z" transform="translate(16.819 .02)"/><path id="path8318" d="M3.074 15.826H0L2.6 4.959h3.1L3.074 15.825zm1.5-12.19a1.922 1.922 0 01-1.163-.382 1.355 1.355 0 01-.521-1.168 1.945 1.945 0 01.176-.815A2.176 2.176 0 013.53.609 2.313 2.313 0 014.2.165 2.082 2.082 0 015.026 0a1.919 1.919 0 011.162.382 1.363 1.363 0 01.519 1.167 1.918 1.918 0 01-.177.817 2.148 2.148 0 01-.466.662 2.279 2.279 0 01-.675.443 2.012 2.012 0 01-.82.165z" transform="translate(28.194 .228)"/><path id="path8320" d="M2.332.5L5.551 0 4.76 3.2h3.448l-.623 2.52H4.158l-.913 3.8a4.28 4.28 0 00-.145.887 1.617 1.617 0 00.1.713.9.9 0 00.447.464 2.056 2.056 0 00.924.166 4.9 4.9 0 00.967-.094 6.787 6.787 0 00.944-.258l.229 2.357a11.072 11.072 0 01-1.35.392 7.843 7.843 0 01-1.724.164 4.791 4.791 0 01-2.223-.421 2.465 2.465 0 01-1.119-1.155A3.658 3.658 0 010 11.053a10.884 10.884 0 01.29-2L2.332.5z" transform="translate(34.246 1.984)"/><path id="path8322" d="M0 6.82a7.6 7.6 0 01.457-2.646A6.5 6.5 0 011.767 2 6.123 6.123 0 013.833.538 6.624 6.624 0 016.542 0a7.181 7.181 0 011.671.176A6.769 6.769 0 019.554.64l-1.06 2.4c-.277-.112-.565-.21-.862-.3a3.776 3.776 0 00-1.089-.14A3.053 3.053 0 004.1 3.657a4.209 4.209 0 00-.9 2.832 2.9 2.9 0 00.458 1.7 1.919 1.919 0 001.682.65 5.42 5.42 0 001.16-.12 5.714 5.714 0 001-.31l.229 2.458a11.015 11.015 0 01-1.288.4 7.183 7.183 0 01-1.683.173 5.7 5.7 0 01-2.18-.371 4.154 4.154 0 01-1.474-1 3.773 3.773 0 01-.843-1.475A6 6 0 010 6.82z" transform="translate(42.319 4.896)"/><path id="path8324" d="M4.317 11.445a5.077 5.077 0 01-1.911-.33 3.558 3.558 0 01-1.339-.93 4.041 4.041 0 01-.8-1.415A5.7 5.7 0 010 6.965a8 8 0 01.4-2.481 7.044 7.044 0 011.2-2.23A6.394 6.394 0 013.529.629 5.354 5.354 0 016.144 0a5.111 5.111 0 011.9.331 3.576 3.576 0 011.349.93 4.034 4.034 0 01.8 1.416 5.716 5.716 0 01.27 1.806 8.255 8.255 0 01-.393 2.481 7.169 7.169 0 01-1.164 2.23 6.126 6.126 0 01-1.92 1.622 5.517 5.517 0 01-2.669.629zM5.854 2.6a1.957 1.957 0 00-1.205.4 3.417 3.417 0 00-.871.992A4.928 4.928 0 003.247 5.3a5.656 5.656 0 00-.175 1.353A3.3 3.3 0 003.4 8.265a1.279 1.279 0 001.205.578A1.947 1.947 0 005.81 8.45a3.4 3.4 0 00.871-.991 4.9 4.9 0 00.532-1.312 5.726 5.726 0 00.176-1.353 3.273 3.273 0 00-.333-1.612A1.275 1.275 0 005.854 2.6z" transform="translate(51.655 4.897)"/><path id="path8326" d="M3.076 15.826H0L2.6 4.959h3.1L3.076 15.825zm1.493-12.19a1.921 1.921 0 01-1.162-.382 1.358 1.358 0 01-.521-1.168 1.945 1.945 0 01.177-.815 2.159 2.159 0 01.469-.662 2.286 2.286 0 01.675-.444A2.056 2.056 0 015.026 0a1.922 1.922 0 011.163.382 1.361 1.361 0 01.52 1.167 1.957 1.957 0 01-.178.817 2.143 2.143 0 01-.465.662 2.321 2.321 0 01-.674.443 2.027 2.027 0 01-.823.165z" transform="translate(62.392 .228)"/><path id="path8328" d="M2.513.744c.233-.068.494-.149.777-.238s.6-.171.957-.246A11.8 11.8 0 015.431.073 13.436 13.436 0 016.915 0a3.718 3.718 0 013.355 1.406 4.773 4.773 0 01.323 3.842l-1.414 5.868H6.086l1.37-5.744c.083-.359.149-.706.2-1.044a2.46 2.46 0 00-.011-.887 1.059 1.059 0 00-.383-.62 1.488 1.488 0 00-.926-.237 6.281 6.281 0 00-1.225.126l-2.016 8.406H0L2.513.744z" transform="translate(67.784 4.938)"/><path id="path8332" d="M3.828 4.244h-.6c-.02-.179-.037-.355-.056-.554s-.035-.373-.055-.536H1.256l-.6 1.089H0c.461-.827.914-1.593 1.345-2.277S2.212.618 2.64 0h.585c.064.32.121.632.169.928.054.327.1.658.15.982.05.348.1.715.142 1.091.041.349.086.743.141 1.242zM2.794.679c-.143.207-.323.478-.536.8s-.464.741-.725 1.191h1.525A30.211 30.211 0 002.794.679z" transform="translate(31.905 19.377)"/><path id="path8334" d="M1.618 4.433a1.968 1.968 0 01-.7-.116 1.351 1.351 0 01-.508-.331 1.372 1.372 0 01-.3-.517A2.142 2.142 0 010 2.786a3.17 3.17 0 01.175-1.053 2.816 2.816 0 01.5-.887A2.441 2.441 0 011.452.23 2.222 2.222 0 012.468 0a2.432 2.432 0 01.766.1 1.763 1.763 0 01.409.184L3.4.771A1.771 1.771 0 003.012.6a1.806 1.806 0 00-.575-.086 1.473 1.473 0 00-.763.2 1.912 1.912 0 00-.572.514 2.361 2.361 0 00-.357.71 2.613 2.613 0 00-.123.781q0 1.194 1.04 1.194a2.32 2.32 0 00.4-.031 2.731 2.731 0 00.311-.07 1.635 1.635 0 00.24-.089l.185-.086.074.514a1.6 1.6 0 01-.194.092 2.46 2.46 0 01-.28.092 2.983 2.983 0 01-.357.07 3.025 3.025 0 01-.418.027z" transform="translate(36.295 19.279)"/><path id="path8336" d="M1.618 4.433a1.968 1.968 0 01-.7-.116 1.351 1.351 0 01-.508-.331 1.372 1.372 0 01-.3-.517A2.142 2.142 0 010 2.786a3.17 3.17 0 01.175-1.053 2.816 2.816 0 01.5-.887A2.441 2.441 0 011.452.23 2.222 2.222 0 012.468 0a2.432 2.432 0 01.766.1 1.763 1.763 0 01.409.184L3.4.771A1.771 1.771 0 003.012.6a1.806 1.806 0 00-.575-.086 1.473 1.473 0 00-.763.2 1.912 1.912 0 00-.572.514 2.361 2.361 0 00-.357.71 2.613 2.613 0 00-.123.781q0 1.194 1.04 1.194a2.32 2.32 0 00.4-.031 2.731 2.731 0 00.311-.07 1.635 1.635 0 00.24-.089l.185-.086.074.514a1.6 1.6 0 01-.194.092 2.46 2.46 0 01-.28.092 2.983 2.983 0 01-.357.07 3.025 3.025 0 01-.418.027z" transform="translate(39.753 19.279)"/><path id="path8338" d="M0 4.243L1.022 0h2.516l-.116.5H1.5l-.308 1.28H2.9l-.117.484h-1.7L.714 3.747h2.068l-.117.5H0z" transform="translate(43.024 19.377)"/><path id="path8340" d="M.6 4.286H0L1.009.1a3.376 3.376 0 01.548-.081C1.749.006 1.933 0 2.1 0a1.874 1.874 0 011.127.282.963.963 0 01.379.82 1.544 1.544 0 01-.157.72 1.354 1.354 0 01-.446.5 2.071 2.071 0 01-.7.29 3.966 3.966 0 01-.9.1H.978L.6 4.285zM2.03.5a3.167 3.167 0 00-.53.026L1.1 2.21h.388a3.185 3.185 0 00.529-.046A1.573 1.573 0 002.5 2a.977.977 0 00.354-.322.917.917 0 00.139-.529.536.536 0 00-.258-.5A1.41 1.41 0 002.03.5z" transform="translate(46.239 19.334)"/><path id="path8342" d="M3.286 0l-.117.5H1.883l-.9 3.747h-.6L1.286.5H0L.117 0z" transform="translate(50.199 19.377)"/><path id="path8344" d="M0 4.243L1.022 0h2.516l-.116.5H1.5l-.308 1.28H2.9l-.117.484h-1.7L.714 3.747h2.068l-.117.5H0z" transform="translate(52.932 19.377)"/><path id="path8346" d="M1.089 4.329c-.167 0-.35-.008-.56-.025A3.025 3.025 0 010 4.218L.991.1a3.255 3.255 0 01.547-.08c.2-.012.38-.018.548-.018A2 2 0 013.5.444a1.58 1.58 0 01.467 1.2A3.124 3.124 0 013.8 2.653a2.36 2.36 0 01-.517.861 2.512 2.512 0 01-.9.594 3.481 3.481 0 01-1.294.221zM2.037.5a3.4 3.4 0 00-.553.024L.7 3.8a1.091 1.091 0 00.166.021c.082.007.21.01.382.01a2.286 2.286 0 00.877-.162 1.878 1.878 0 00.661-.454A2.053 2.053 0 003.2 2.52a2.543 2.543 0 00.148-.878A1.115 1.115 0 003.034.8a1.417 1.417 0 00-.997-.3z" transform="translate(56.156 19.334)"/><path id="path8348" d="M3.169 4.243h-.6l.474-1.971H1.071L.6 4.243H0L1.022 0h.6l-.434 1.776h1.976L3.594 0h.6L3.169 4.243z" transform="translate(61.553 19.377)"/><path id="path8350" d="M0 4.243L1.022 0h2.516l-.117.5H1.495l-.308 1.28H2.9l-.117.484h-1.7l-.37 1.483h2.068l-.117.5H0z" transform="translate(65.664 19.377)"/><path id="path8352" d="M.6 4.286H0L1.01.1a3.252 3.252 0 01.547-.082C1.754.006 1.938 0 2.1 0a1.89 1.89 0 011.088.275.923.923 0 01.4.808 1.329 1.329 0 01-.317.9 1.78 1.78 0 01-.889.524 6.697 6.697 0 01.373.769c.068.165.139.331.2.5s.12.334.172.5h-.604a24.942 24.942 0 00-.365-.931 8.848 8.848 0 00-.367-.752h-.005c-.052 0-.1.007-.155.009H1L.6 4.285zM2.03.5a3.167 3.167 0 00-.53.027l-.388 1.6h.364a3.806 3.806 0 00.517-.037 1.574 1.574 0 00.483-.144.94.94 0 00.356-.3.86.86 0 00.14-.511.517.517 0 00-.261-.485A1.379 1.379 0 002.03.5z" transform="translate(68.879 19.334)"/><path id="path8354" d="M0 4.243L1.022 0h2.516l-.117.5H1.495l-.308 1.28H2.9l-.117.484h-1.7l-.37 1.483h2.068l-.117.5H0z" transform="translate(72.512 19.377)"/><path id="circle8306" d="M8.2 16.321a8.16 8.16 0 118.2-8.16 8.19 8.19 0 01-8.2 8.16zM6.7 11.3c.252.068.486.128.716.184l-.368 1.466.9.223.373-1.485a6.49 6.49 0 001.176.128 1.88 1.88 0 002-1.337 1.566 1.566 0 00-.827-2.173A1.435 1.435 0 0011.819 7c.14-.934-.433-1.589-1.8-2.059l.368-1.472-.9-.223-.364 1.429c-.2-.049-.42-.1-.721-.168l.361-1.443-.9-.223L7.5 4.312l-.1-.022a23.21 23.21 0 01-.48-.113l-1.24-.312-.24.957c.24.054.646.149.654.16a.478.478 0 01.419.522l-.42 1.676h.016a.7.7 0 01.079.027l-.073-.019-.022-.005L5.5 9.535a.332.332 0 01-.3.225.453.453 0 01-.107-.013c-.038 0-.649-.16-.654-.162l-.45 1.025 1.171.29q.228.057.45.115l.192.05-.373 1.488.9.224.37-1.471zm1.957-.78a6.242 6.242 0 01-1.489-.253l-.174-.045.494-1.972.223.051c.566.127 1.618.362 1.966.926a.8.8 0 01.088.635c-.113.438-.485.663-1.111.663zm.4-2.93a4.883 4.883 0 01-1.2-.2l-.147-.038.448-1.788c.052.013.114.026.186.042.46.1 1.317.29 1.615.772a.756.756 0 01.08.6c-.101.41-.432.617-.982.622z" transform="translate(.026 .021)"/></g></svg>