<svg id="Group" xmlns="http://www.w3.org/2000/svg" width="28" height="28"><path id="LinkedIn__x28_alt_x29_-path" d="M26.271 0H2.247A2.1 2.1 0 000 1.9v24.146A2.149 2.149 0 002.247 28h24.024A1.717 1.717 0 0028 26.046V1.9A1.671 1.671 0 0026.271 0z" fill="#323642"/><path id="LinkedIn__x28_alt_x29_" d="M11.075 18.961H6.867c0-.1.056-11.457 0-12.728h4.207v1.732A4.459 4.459 0 0115 5.861a4.742 4.742 0 013.545 1.4 6.152 6.152 0 011.443 4.331v7.369h-4.459v-6.882c0-1.91-.713-2.879-2.118-2.879a2.37 2.37 0 00-2.189 1.548 2.754 2.754 0 00-.148 1.031v7.181zm-7 0H.257V6.233h3.817v12.726zM2.382 4.324h-.028A2.161 2.161 0 010 2.174 2.2 2.2 0 012.409 0a2.188 2.188 0 012.382 2.161 2.2 2.2 0 01-2.409 2.163z" transform="translate(4.198 4.586)" fill="#fff"/></svg>