<svg xmlns="http://www.w3.org/2000/svg" width="65.468" height="50.921"><g id="mc_vrt_pos" transform="translate(-.517 -.514)" fill="#889099"><path id="Shape" d="M60.346 7.485a.529.529 0 010-.416.537.537 0 01.292-.281.573.573 0 01.23-.04h-.007a.557.557 0 01.2.04.569.569 0 01.175.113.563.563 0 01.118.168.522.522 0 010 .416.567.567 0 01-.118.169.587.587 0 01-.175.113.527.527 0 01-.213.045.561.561 0 01-.502-.327zm-35.58.2c-1.382 0-1.866-.742-1.866-1.989v-2.47h-1.09V2.158h1.067V.528h1.181v1.63h1.922l.012 1.067h-1.911v2.451c0 .539.213.9.775.9a2.168 2.168 0 001.034-.3l.337 1a2.742 2.742 0 01-1.452.416zm-8.542-.719l.563-.911a2.864 2.864 0 001.787.563c.8 0 1.226-.237 1.226-.652 0-.3-.3-.472-.945-.562l-.562-.078c-1.2-.169-1.855-.708-1.855-1.585 0-1.068.888-1.72 2.248-1.72a4.02 4.02 0 012.191.562l-.517.944a3.464 3.464 0 00-1.686-.461c-.641 0-1.023.27-1.023.63s.4.461.911.528l.562.078C20.293 4.473 21 4.89 21 5.912s-.9 1.753-2.451 1.753h-.109a3.877 3.877 0 01-2.216-.696zm21.713-.1a2.714 2.714 0 01-.812-2.038v-.017A2.713 2.713 0 0139.991 2a2.807 2.807 0 011.933.641l-.562.944a2.356 2.356 0 00-1.4-.483 1.725 1.725 0 000 3.439 2.356 2.356 0 001.4-.483l.562.942a2.807 2.807 0 01-1.933.641h-.154a2.715 2.715 0 01-1.9-.769zm-8.237.777a2.81 2.81 0 11-.079-5.62l.017.011a2.555 2.555 0 012.552 2.811v.449h-3.996A1.49 1.49 0 0029.8 6.609a2.558 2.558 0 001.562-.562l.563.865a3.264 3.264 0 01-2.064.735q-.082 0-.161-.004zm26.4 0a2.81 2.81 0 010-5.62 2.038 2.038 0 011.686.787V0H58.9v7.508h-1.123v-.652a2.037 2.037 0 01-1.61.788zm-10.875 0a2.81 2.81 0 010-5.62 2.04 2.04 0 011.675.787v-.652h1.168v5.35H46.9v-.652a2.04 2.04 0 01-1.611.788zm-32.96 0a2.81 2.81 0 010-5.62 2.039 2.039 0 011.686.787v-.652h1.169v5.35h-1.177v-.652a2.038 2.038 0 01-1.61.788zm-4.926-3.08c0-.91-.382-1.416-1.18-1.416a1.263 1.263 0 00-1.314 1.428v2.978H3.664v-2.99c0-.91-.393-1.416-1.169-1.416A1.259 1.259 0 001.18 4.575V7.53H0V2.158h1.169v.663a1.775 1.775 0 011.573-.8 1.971 1.971 0 011.776.955 2.082 2.082 0 011.888-.955 2 2 0 012.113 2.138V7.53l-1.18.023zM49.612 7.53V2.158h1.158v.652a1.583 1.583 0 011.416-.787L52.163 2a2.492 2.492 0 01.832.146l-.359 1.124a1.9 1.9 0 00-.731-.135c-.742 0-1.124.495-1.124 1.382V7.53zm-16.235 0V2.158h1.157v.652a1.584 1.584 0 011.417-.787L35.928 2a2.5 2.5 0 01.832.146l-.36 1.125a1.9 1.9 0 00-.731-.135c-.742 0-1.124.495-1.124 1.382V7.53z" transform="translate(3.908 43.624)"/><path id="_Path_" d="M25.005 20.235a20.2 20.2 0 017.727-15.91 20.231 20.231 0 100 31.814 20.2 20.2 0 01-7.727-15.9z" transform="translate(.517 .517)" opacity=".4"/><path id="Shape-2" data-name="Shape" d="M32.736 20.237A20.231 20.231 0 010 36.141a20.231 20.231 0 007.73-15.907A20.231 20.231 0 000 4.327a20.231 20.231 0 0132.736 15.9z" transform="translate(33.25 .514)"/><path id="Combined_Shape" data-name="Combined Shape" d="M8 32.5A20.5 20.5 0 018 0a20.466 20.466 0 018 16.249A20.466 20.466 0 018 32.5z" transform="translate(25.43 4.68)" opacity=".65"/><path id="Shape-3" data-name="Shape" d="M1.585.2l-.22.511h-.151L.995.2v.587H.849V0h.18l.236.562L1.5 0h.2v.787l-.115.005zM.286.787V.135H0V0h.669v.135H.405v.652z" transform="translate(63.647 32.497)"/></g></svg>