<svg xmlns="http://www.w3.org/2000/svg" width="73.986" height="17.923"><g id="OK_Pay" data-name="OK Pay" transform="translate(0 -.078)" fill="#889099"><path id="Fill_1" data-name="Fill 1" d="M13.536 0h-1.129a2.114 2.114 0 00-1.675 1.077L9.615 2.669 7.194 6.117 5.1 3.131c-.01-.015-.015-.029-.026-.044L3.658 1.081A2.126 2.126 0 001.977.005H.93C.207.005-.261.489.158 1.079l1.421 2.01.01.012 4.046 5.712v6.467a1.317 1.317 0 001.314 1.315h.49a1.321 1.321 0 001.314-1.318v-6.47l4.31-6.084c.013-.017.031-.034.043-.053l1.127-1.6c.418-.586.025-1.07-.697-1.07" transform="translate(59.582 1.405)"/><path id="Fill_3" data-name="Fill 3" d="M5 7.776l4.06-3.908 2.87-2.761C12.445.611 11.893 0 11.19 0H9.646c-.7 0-1.058.406-1.57.9L5.07 3.816l-.007.008L3.13 5.7V3.573h-.009c0-.029.008-.056.008-.085V1.317A1.3 1.3 0 001.852 0h-.574A1.3 1.3 0 000 1.317v2.171c0 .029.006.056.008.085H0v11.7a1.3 1.3 0 001.278 1.317h.574a1.3 1.3 0 001.278-1.312v-5.241l2.755 2.835L8.6 15.665c.5.511.84.93 1.543.93h1.546a.788.788 0 00.5-1.368L5 7.776" transform="translate(20.952 1.405)"/><path id="Fill_4" data-name="Fill 4" d="M14.8 16.6h-1.04a1.613 1.613 0 01-1.424-1.236l-.152-.408-.95-2.532-.065-.135-.086-.227H4.659L3.6 14.882h-.01l-.177.477c-.227.611-.561 1.236-1.32 1.236H.917a.909.909 0 01-.789-.36.9.9 0 01-.039-.862l.2-.49 5.25-13.044h.009l.245-.614A2.1 2.1 0 017.6 0h.524a2.107 2.107 0 011.813 1.223l.248.616 5.277 13.113h-.008l.171.422A.827.827 0 0114.8 16.6zM7.86 4.443c-.095 0-.183.089-.249.252L5.94 8.79a.412.412 0 00.411.609h3.025a.412.412 0 00.411-.609l-1.679-4.1c-.065-.157-.154-.247-.248-.247z" transform="translate(47.142 1.405)"/><path id="Fill_5" data-name="Fill 5" d="M1.865 16.6h-.524A1.331 1.331 0 010 15.278V1.318A1.331 1.331 0 011.341 0H5.6a7.079 7.079 0 014.578 1.3 4.164 4.164 0 011.207 1.634 5.708 5.708 0 01.4 2.2 5.776 5.776 0 01-.4 2.217 4.142 4.142 0 01-1.208 1.634 7.087 7.087 0 01-4.577 1.3H3.206v4.994A1.331 1.331 0 011.865 16.6zM3.877 2.636a.666.666 0 00-.671.659v3.694a.666.666 0 00.671.659H5.6A3.15 3.15 0 007.738 7a1.98 1.98 0 00.536-.773 3.028 3.028 0 00.183-1.089 2.967 2.967 0 00-.183-1.078 1.967 1.967 0 00-.536-.772A3.145 3.145 0 005.6 2.636z" transform="translate(37.975 1.405)"/><path id="Fill_6" data-name="Fill 6" d="M8.216 17.923h-.04a7.707 7.707 0 01-5.952-2.455 8.455 8.455 0 01-2.013-4.21l-.18-1.417v-.009a9.727 9.727 0 01-.015-1.366v-.074l.136-1.413a8.529 8.529 0 012.073-4.516A7.688 7.688 0 018.176 0h.04a7.661 7.661 0 015.934 2.463 9.323 9.323 0 012.219 6.5 9.326 9.326 0 01-2.219 6.493 7.661 7.661 0 01-5.934 2.467zM4.649 4.343a6.07 6.07 0 00-1.17 2.7l-.158 1.38v.332c0 .2 0 .42.006.6 0 .2.007.367.013.446l.205 1.382a5.9 5.9 0 001.111 2.4A4.173 4.173 0 006.187 14.8a4.731 4.731 0 002.01.4 4.708 4.708 0 002.005-.4 4.145 4.145 0 001.525-1.22 7.246 7.246 0 001.337-4.616 7.262 7.262 0 00-1.337-4.625A4.126 4.126 0 0010.2 3.12a4.707 4.707 0 00-2.005-.4 4.73 4.73 0 00-2.01.4 4.124 4.124 0 00-1.534 1.225z" transform="translate(3.274 .078)"/><path id="Fill_8" data-name="Fill 8" d="M10.772 1.991H0L1.013 0h10.772l-1.013 1.991" transform="translate(.655 6.052)"/><path id="Fill_9" data-name="Fill 9" d="M9.408 1.991H0L1.067 0h9.408L9.408 1.991" transform="translate(0 10.035)"/></g></svg>