<svg xmlns="http://www.w3.org/2000/svg" width="29.995" height="29.993"><g id="_2SL" data-name="2SL" transform="translate(-.003 -.007)"><path id="Shape" d="M14.654 0A15 15 0 110 14.993 15 15 0 0114.654 0z" transform="translate(.003 .007)" fill="#323642"/><path id="Shape-2" data-name="Shape" d="M10.011 20.055a12.151 12.151 0 01-5.065-1.7 7.7 7.7 0 01-3.121-3.441 5.733 5.733 0 01-.385-3.282.224.224 0 00-.115-.263A2.717 2.717 0 01.036 9.5a2.54 2.54 0 013.1-2.948 8.171 8.171 0 011.3.566.246.246 0 00.29 0 11.417 11.417 0 014.12-1.732A11.669 11.669 0 0111.36 5.1c.167 0 .2-.089.239-.214q.676-2.157 1.358-4.312a.668.668 0 01.926-.541c1.256.268 2.511.532 3.765.806A.3.3 0 0018 .726 2 2 0 0121.244 1a1.965 1.965 0 01-1.452 2.883 2.015 2.015 0 01-2.251-1.464.385.385 0 00-.354-.32c-.968-.2-1.932-.411-2.9-.619-.076-.016-.155-.025-.252-.041-.4 1.258-.8 2.5-1.215 3.784l.666.069a11.453 11.453 0 015.239 1.828.181.181 0 00.258-.018 2.554 2.554 0 012.817-.384 2.489 2.489 0 011.529 2.171 2.559 2.559 0 01-1.181 2.382.453.453 0 00-.216.506 5.9 5.9 0 01-1.5 4.844 10.325 10.325 0 01-5.732 3.208 13.539 13.539 0 01-2.981.333 13.722 13.722 0 01-1.708-.107z" transform="translate(3.424 5.564)" fill="#fff"/></g></svg>