<svg xmlns="http://www.w3.org/2000/svg" width="28" height="23"><path id="Shape" d="M28 2.721a11.371 11.371 0 01-3.3.915A5.822 5.822 0 0027.227.425a11.5 11.5 0 01-3.65 1.41A5.7 5.7 0 0019.385 0a5.777 5.777 0 00-5.745 5.807 5.887 5.887 0 00.149 1.324A16.248 16.248 0 011.951 1.062a5.859 5.859 0 001.778 7.753 5.7 5.7 0 01-2.6-.729v.073a5.8 5.8 0 004.607 5.7 5.757 5.757 0 01-1.513.2 5.454 5.454 0 01-1.081-.108A5.756 5.756 0 008.5 17.984a11.443 11.443 0 01-7.13 2.482A12.073 12.073 0 010 20.387 16.105 16.105 0 008.8 23c10.566 0 16.342-8.85 16.342-16.526l-.019-.752A11.542 11.542 0 0028 2.721z" fill="#323642"/></svg>