<svg id="ilo_light_announcements" data-name="ilo/light/announcements" xmlns="http://www.w3.org/2000/svg" width="60" height="60"><g id="Group" transform="translate(9.5 10)" fill="none" stroke-miterlimit="10"><g id="Combined_Shape" data-name="Combined Shape"><path d="M33.59 40a1.3 1.3 0 01-1.275-1.265A32.412 32.412 0 001.265 7.641 1.3 1.3 0 010 6.366V1.231A1.231 1.231 0 011.265 0a39.85 39.85 0 0127 11.718 39.9 39.9 0 0111.712 27.017A1.23 1.23 0 0138.75 40zm-13.615 0a1.331 1.331 0 01-1.292-1.26 18.656 18.656 0 00-5.447-12.025A18.616 18.616 0 001.255 21.26 1.328 1.328 0 010 19.966v-5.133a1.213 1.213 0 011.255-1.222 26.266 26.266 0 0117.387 7.717 26.361 26.361 0 017.718 17.407A1.216 1.216 0 0125.142 40z" transform="translate(.87)"/><path d="M37.945 38c-.49-9.383-4.411-18.187-11.095-24.868C20.174 6.449 11.377 2.526 2 2.033v3.641C19.286 6.678 33.287 20.7 34.282 38h3.663m-13.637 0a24.38 24.38 0 00-7.081-15.259c-4.11-4.116-9.489-6.61-15.227-7.078v3.652a20.68 20.68 0 0112.651 5.988A20.71 20.71 0 0120.628 38h3.68m14.442 2h-5.16c-.693 0-1.248-.574-1.276-1.265C31.67 21.89 18.087 8.293 1.264 7.641.573 7.613 0 7.056 0 6.366V1.23A1.23 1.23 0 011.265.001c10.522.332 20.03 4.74 27 11.717 6.967 6.965 11.382 16.49 11.712 27.017A1.23 1.23 0 0138.75 40zm-13.608 0h-5.167c-.69 0-1.248-.574-1.293-1.26-.302-4.547-2.21-8.797-5.447-12.025a18.616 18.616 0 00-11.98-5.455C.567 21.213 0 20.656 0 19.966v-5.133c0-.692.567-1.252 1.255-1.222 6.777.317 12.89 3.212 17.387 7.717 4.51 4.513 7.393 10.63 7.718 17.407A1.216 1.216 0 0125.142 40z" fill="#46b843" transform="translate(.87)"/></g><circle id="Oval_3" data-name="Oval 3" cx="5.217" cy="5.217" r="5.217" transform="translate(0 29.565)" stroke="#46b843" stroke-width="2"/></g></svg>