<?xml version="1.0" encoding="utf-8"?><svg viewBox="0 0 78.588 60" xmlns="http://www.w3.org/2000/svg" xmlns:xlink="http://www.w3.org/1999/xlink"><style>:root>svg{display:none}:root>svg:target{display:block}</style><svg viewBox="0 0 54.002 53.95" id="amex" xmlns="http://www.w3.org/2000/svg"><defs><clipPath id="aa"><path d="M0 0v22.1h53.965V0z" transform="translate(0 .058)"/></clipPath></defs><path d="M.008 0v53.95h53.949V0z"/><path data-name="bluebox-55x54-a" d="M0 16.733v22.1h53.965v-22.1z"/><g data-name="Clipped" clip-path="url(#aa)" transform="translate(0 16.675)"><path data-name="Shape" d="M33.657 22.158L32.6 20.785v1.373h-4.182v-2.395a5.787 5.787 0 01-2.025.358h.063v2.037h-6l-.863-1.226-.839 1.226h-9.59v-9.429h9.626l.844 1.208.854-1.208h33.477v8.846a3.741 3.741 0 01-.691.332 4.259 4.259 0 01-1.453.248zm13.7-12.67l-.881-1.4v1.4h-5.835l-.517-1.354h-.962l-.508 1.354h-3.479a5.524 5.524 0 01-.987-.087 4.718 4.718 0 01-.615-.153 4.431 4.431 0 01-.485-.19 3.906 3.906 0 01-.464-.257v.686H26.81l-1.053-1.373v1.371H4.723L4.2 8.132h-.957l-.509 1.353H0V4.091L1.726.058h3.859l.855 1.927V.058h4.731l.563 1.644.555-1.644h20.334v.737a4.071 4.071 0 01.559-.311 4.5 4.5 0 01.517-.2 4.816 4.816 0 01.7-.162 5.675 5.675 0 01.876-.064h6.231l.844 1.906V.058h3.769l.962 1.508V.058H51.4v9.427z"/></g><path data-name="Shape" d="M48.598 37.296v-1.272h3.261a.606.606 0 00.626-.644.589.589 0 00-.626-.618h-1.463a1.766 1.766 0 01-1.98-1.843 1.969 1.969 0 012.189-1.981h3.28l-.564 1.29h-2.76a.6.6 0 00-.617.635.579.579 0 00.617.609h1.472a1.731 1.731 0 011.97 1.8 1.978 1.978 0 01-2.189 2.026zm-6.048 0v-1.272h3.26a.606.606 0 00.626-.644.589.589 0 00-.626-.618h-1.466a1.766 1.766 0 01-1.977-1.844 1.97 1.97 0 012.189-1.98h3.28l-.563 1.29h-2.762a.6.6 0 00-.617.635.579.579 0 00.617.609h1.472a1.731 1.731 0 011.971 1.8 1.978 1.978 0 01-2.19 2.026zm-6.013 0v-6.358h5.086v1.29h-3.56v1.235h3.481v1.275h-3.481v1.277h3.559v1.281zm-2.606 0l-1.9-2.289h-.717v2.289h-1.525v-6.358h3.455a1.988 1.988 0 012.2 2.016 1.971 1.971 0 01-1.725 2l2.116 2.344zm-10.662 0v-6.358h3.5a2.032 2.032 0 012.2 2.125 2.082 2.082 0 01-2.253 2.134h-1.922v2.1zm-2.244 0l-1.562-2.044-1.562 2.044h-1.857l2.538-3.179-2.543-3.179h1.905l1.555 2.016 1.563-2.016h1.852L20.38 34.09l2.552 3.206zm-10.381 0v-6.358h5.086v1.29h-3.56v1.235h3.474v1.275H12.17v1.277h3.56v1.281zM47.971 24.625l-2.434-3.806-.319-.526.019.526v3.806h-1.49v-6.358h1.87l2.381 3.678.281.473-.018-.473v-3.678h1.49v6.358zm-6.294 0l-.55-1.363h-3.019l-.535 1.363h-1.626l2.723-6.358h2.008l2.715 6.358zm-6.657 0a2.824 2.824 0 01-2.933-3.124v-.109a2.871 2.871 0 013.033-3.125h1.78v1.372h-1.652a1.582 1.582 0 00-1.644 1.762v.091a1.577 1.577 0 001.662 1.775h.461l-.626 1.353zm-5.422 0v-6.358h1.529v6.358zm-2.38 0l-1.9-2.289h-.717v2.289h-1.524v-6.358h3.45a1.989 1.989 0 012.2 2.017 1.971 1.971 0 01-1.726 2l2.116 2.341zm-10.345 0v-6.358h5.086v1.29h-3.558v1.235h3.478v1.275h-3.478v1.259h3.559v1.3zm-2.733 0v-4.351l.037-1.67-1.761 6.021h-1.381l-1.762-6.058.037 1.716v4.342H7.827v-6.358h2.679l1.221 4.5 1.206-4.5h2.688v6.358zm-8.383 0l-.544-1.363H2.189l-.537 1.363H.027l2.725-6.358h2.007l2.716 6.358z"/></svg><svg data-name="ilo/light/announcements" viewBox="0 0 60 60" id="bell" xmlns="http://www.w3.org/2000/svg"><g stroke-miterlimit="10"><path d="M45.063 33.119v-7.684a15.143 15.143 0 00-9.533-14.062 19.764 19.764 0 00-5.821-1.143 17.124 17.124 0 00-5.558 1.143 14.91 14.91 0 00-9.533 14.072v7.674l-3.928 8.042a1.864 1.864 0 001.673 2.684h11.5v.185a5.973 5.973 0 0011.947 0v-.182h11.508a1.864 1.864 0 001.673-2.684z"/><path d="M29.836 48a3.978 3.978 0 003.973-3.973v-2.182H47.1l-4.036-8.264v-8.145c0-2.64-.783-5.188-2.264-7.373a13.094 13.094 0 00-5.987-4.823c-.786-.29-3.167-1.01-5.103-1.01-2.3 0-4.784.987-4.806.996l-.03.012a12.852 12.852 0 00-6.034 4.801 12.852 12.852 0 00-2.221 7.383V33.581l-4.036 8.264h13.28v2.182A3.978 3.978 0 0029.836 48m0 2a5.973 5.973 0 01-5.974-5.973v-.182h-11.5a1.864 1.864 0 01-1.672-2.684l3.928-8.042v-7.674a14.91 14.91 0 019.533-14.072s2.817-1.143 5.558-1.143c2.741 0 5.82 1.143 5.82 1.143a15.143 15.143 0 019.534 14.062v7.684l3.928 8.042a1.864 1.864 0 01-1.673 2.684H35.81v.182c0 3.299-2.674 5.973-5.973 5.973z"/></g><path data-name="Line Copy" d="M15.357 43.268h28.572"/></svg><svg viewBox="0 0 78.588 23.691" id="bitcoin" xmlns="http://www.w3.org/2000/svg"><path d="M21.073 16.322c-.146 0-.385 0-.656-.01a9.594 9.594 0 01-1.068-.092 12.687 12.687 0 01-1.278-.249 6.471 6.471 0 01-1.278-.455L20.386.5l3.218-.5-1.287 5.33a5.04 5.04 0 01.83-.289 3.805 3.805 0 01.894-.1 3.949 3.949 0 011.723.351 3.5 3.5 0 011.207.951 4.011 4.011 0 01.7 1.4 6.421 6.421 0 01.228 1.735 6.958 6.958 0 01-.529 2.7 7.008 7.008 0 01-1.444 2.211 6.8 6.8 0 01-2.16 1.486 6.628 6.628 0 01-2.693.547zM23.274 7.5a3.841 3.841 0 00-.758.1 1.917 1.917 0 00-.842.435l-1.37 5.665c.081.013.153.027.218.04a1.591 1.591 0 00.2.032 2.208 2.208 0 00.25.012h.374a2.843 2.843 0 001.371-.351 3.615 3.615 0 001.112-.94 4.749 4.749 0 00.736-1.334 4.521 4.521 0 00.271-1.55 3.039 3.039 0 00-.333-1.549 1.311 1.311 0 00-1.229-.56zM31.242 16.034h-3.074l2.6-10.867h3.1l-2.626 10.866zm1.5-12.19a1.922 1.922 0 01-1.163-.382 1.355 1.355 0 01-.521-1.168 1.945 1.945 0 01.176-.815 2.176 2.176 0 01.464-.662 2.313 2.313 0 01.67-.444 2.082 2.082 0 01.826-.165 1.919 1.919 0 011.162.382 1.363 1.363 0 01.519 1.167 1.918 1.918 0 01-.177.817 2.148 2.148 0 01-.466.662 2.279 2.279 0 01-.675.443 2.012 2.012 0 01-.82.165zM36.552 2.464l3.219-.5-.791 3.2h3.448l-.623 2.52h-3.427l-.913 3.8a4.28 4.28 0 00-.145.887 1.617 1.617 0 00.1.713.9.9 0 00.447.464 2.056 2.056 0 00.924.166 4.9 4.9 0 00.967-.094 6.787 6.787 0 00.944-.258l.229 2.357a11.072 11.072 0 01-1.35.392 7.843 7.843 0 01-1.724.164 4.791 4.791 0 01-2.223-.421 2.465 2.465 0 01-1.119-1.155 3.658 3.658 0 01-.295-1.682 10.884 10.884 0 01.29-2l2.042-8.553zM42.293 11.696a7.6 7.6 0 01.457-2.646 6.5 6.5 0 011.31-2.174 6.123 6.123 0 012.066-1.462 6.624 6.624 0 012.709-.538 7.181 7.181 0 011.671.176 6.769 6.769 0 011.341.464l-1.06 2.4c-.277-.112-.565-.21-.862-.3a3.776 3.776 0 00-1.089-.14 3.053 3.053 0 00-2.443 1.057 4.209 4.209 0 00-.9 2.832 2.9 2.9 0 00.458 1.7 1.919 1.919 0 001.682.65 5.42 5.42 0 001.16-.12 5.714 5.714 0 001-.31l.229 2.458a11.015 11.015 0 01-1.288.4 7.183 7.183 0 01-1.683.173 5.7 5.7 0 01-2.18-.371 4.154 4.154 0 01-1.474-1 3.773 3.773 0 01-.843-1.475 6 6 0 01-.261-1.774zM55.946 16.322a5.077 5.077 0 01-1.911-.33 3.558 3.558 0 01-1.339-.93 4.041 4.041 0 01-.8-1.415 5.7 5.7 0 01-.267-1.805 8 8 0 01.4-2.481 7.044 7.044 0 011.2-2.23 6.394 6.394 0 011.929-1.625 5.354 5.354 0 012.615-.629 5.111 5.111 0 011.9.331 3.576 3.576 0 011.349.93 4.034 4.034 0 01.8 1.416 5.716 5.716 0 01.27 1.806 8.255 8.255 0 01-.393 2.481 7.169 7.169 0 01-1.164 2.23 6.126 6.126 0 01-1.92 1.622 5.517 5.517 0 01-2.669.629zm1.537-8.845a1.957 1.957 0 00-1.205.4 3.417 3.417 0 00-.871.992 4.928 4.928 0 00-.531 1.308 5.656 5.656 0 00-.175 1.353 3.3 3.3 0 00.328 1.612 1.279 1.279 0 001.205.578 1.947 1.947 0 001.205-.393 3.4 3.4 0 00.871-.991 4.9 4.9 0 00.532-1.312 5.726 5.726 0 00.176-1.353 3.273 3.273 0 00-.333-1.612 1.275 1.275 0 00-1.202-.582zM65.442 16.034h-3.076l2.6-10.867h3.1l-2.624 10.866zm1.493-12.19a1.921 1.921 0 01-1.162-.382 1.358 1.358 0 01-.521-1.168 1.945 1.945 0 01.177-.815 2.159 2.159 0 01.469-.662 2.286 2.286 0 01.675-.444 2.056 2.056 0 01.819-.165 1.922 1.922 0 011.163.382 1.361 1.361 0 01.52 1.167 1.957 1.957 0 01-.178.817 2.143 2.143 0 01-.465.662 2.321 2.321 0 01-.674.443 2.027 2.027 0 01-.823.165zM70.271 5.662c.233-.068.494-.149.777-.238s.6-.171.957-.246a11.8 11.8 0 011.184-.187 13.436 13.436 0 011.484-.073 3.718 3.718 0 013.355 1.406 4.773 4.773 0 01.323 3.842l-1.414 5.868h-3.093l1.37-5.744c.083-.359.149-.706.2-1.044a2.46 2.46 0 00-.011-.887 1.059 1.059 0 00-.383-.62 1.488 1.488 0 00-.926-.237 6.281 6.281 0 00-1.225.126l-2.016 8.406h-3.095l2.513-10.372zM35.707 23.601h-.6c-.02-.179-.037-.355-.056-.554s-.035-.373-.055-.536h-1.861l-.6 1.089h-.656c.461-.827.914-1.593 1.345-2.277s.867-1.348 1.295-1.966h.585c.064.32.121.632.169.928.054.327.1.658.15.982.05.348.1.715.142 1.091.041.349.086.743.141 1.242zm-1.034-3.565c-.143.207-.323.478-.536.8s-.464.741-.725 1.191h1.525a30.211 30.211 0 00-.264-1.991zM37.887 23.692a1.968 1.968 0 01-.7-.116 1.351 1.351 0 01-.508-.331 1.372 1.372 0 01-.3-.517 2.142 2.142 0 01-.11-.683 3.17 3.17 0 01.175-1.053 2.816 2.816 0 01.5-.887 2.441 2.441 0 01.777-.616 2.222 2.222 0 011.016-.23 2.432 2.432 0 01.766.1 1.763 1.763 0 01.409.184l-.243.487a1.771 1.771 0 00-.388-.171 1.806 1.806 0 00-.575-.086 1.473 1.473 0 00-.763.2 1.912 1.912 0 00-.572.514 2.361 2.361 0 00-.357.71 2.613 2.613 0 00-.123.781q0 1.194 1.04 1.194a2.32 2.32 0 00.4-.031 2.731 2.731 0 00.311-.07 1.635 1.635 0 00.24-.089l.185-.086.074.514a1.6 1.6 0 01-.194.092 2.46 2.46 0 01-.28.092 2.983 2.983 0 01-.357.07 3.025 3.025 0 01-.418.027zM41.345 23.692a1.968 1.968 0 01-.7-.116 1.351 1.351 0 01-.508-.331 1.372 1.372 0 01-.3-.517 2.142 2.142 0 01-.11-.683 3.17 3.17 0 01.175-1.053 2.816 2.816 0 01.5-.887 2.441 2.441 0 01.777-.616 2.222 2.222 0 011.016-.23 2.432 2.432 0 01.766.1 1.763 1.763 0 01.409.184l-.243.487a1.771 1.771 0 00-.388-.171 1.806 1.806 0 00-.575-.086 1.473 1.473 0 00-.763.2 1.912 1.912 0 00-.572.514 2.361 2.361 0 00-.357.71 2.613 2.613 0 00-.123.781q0 1.194 1.04 1.194a2.32 2.32 0 00.4-.031 2.731 2.731 0 00.311-.07 1.635 1.635 0 00.24-.089l.185-.086.074.514a1.6 1.6 0 01-.194.092 2.46 2.46 0 01-.28.092 2.983 2.983 0 01-.357.07 3.025 3.025 0 01-.418.027zM42.998 23.6l1.022-4.243h2.516l-.116.5h-1.922l-.308 1.28h1.708l-.117.484h-1.7l-.369 1.483h2.068l-.117.5h-2.665zM46.813 23.6h-.6l1.009-4.186a3.376 3.376 0 01.548-.081c.192-.013.376-.019.543-.019a1.874 1.874 0 011.127.282.963.963 0 01.379.82 1.544 1.544 0 01-.157.72 1.354 1.354 0 01-.446.5 2.071 2.071 0 01-.7.29 3.966 3.966 0 01-.9.1h-.425l-.378 1.573zm1.43-3.786a3.167 3.167 0 00-.53.026l-.4 1.684h.388a3.185 3.185 0 00.529-.046 1.573 1.573 0 00.483-.164.977.977 0 00.354-.322.917.917 0 00.139-.529.536.536 0 00-.258-.5 1.41 1.41 0 00-.705-.149zM53.459 19.357l-.117.5h-1.286l-.9 3.747h-.6l.903-3.747h-1.286l.117-.5zM52.906 23.6l1.022-4.243h2.516l-.116.5h-1.922l-.308 1.28h1.708l-.117.484h-1.7l-.369 1.483h2.068l-.117.5h-2.665zM57.219 23.643c-.167 0-.35-.008-.56-.025a3.025 3.025 0 01-.529-.086l.991-4.118a3.255 3.255 0 01.547-.08c.2-.012.38-.018.548-.018a2 2 0 011.414.442 1.58 1.58 0 01.467 1.2 3.124 3.124 0 01-.167 1.009 2.36 2.36 0 01-.517.861 2.512 2.512 0 01-.9.594 3.481 3.481 0 01-1.294.221zm.948-3.829a3.4 3.4 0 00-.553.024l-.784 3.276a1.091 1.091 0 00.166.021c.082.007.21.01.382.01a2.286 2.286 0 00.877-.162 1.878 1.878 0 00.661-.454 2.053 2.053 0 00.414-.695 2.543 2.543 0 00.148-.878 1.115 1.115 0 00-.314-.842 1.417 1.417 0 00-.997-.3zM64.696 23.6h-.6l.474-1.971h-1.972l-.471 1.971h-.6l1.022-4.243h.6l-.434 1.776h1.976l.43-1.776h.6L64.696 23.6zM65.638 23.6l1.022-4.243h2.516l-.117.5h-1.926l-.308 1.28h1.713l-.117.484h-1.7l-.37 1.483h2.068l-.117.5h-2.664zM69.453 23.6h-.6l1.01-4.186a3.252 3.252 0 01.547-.082c.197-.012.381-.018.543-.018a1.89 1.89 0 011.088.275.923.923 0 01.4.808 1.329 1.329 0 01-.317.9 1.78 1.78 0 01-.889.524 6.697 6.697 0 01.373.769c.068.165.139.331.2.5s.12.334.172.5h-.604a24.942 24.942 0 00-.365-.931 8.848 8.848 0 00-.367-.752h-.005c-.052 0-.1.007-.155.009h-.631l-.4 1.683zm1.43-3.786a3.167 3.167 0 00-.53.027l-.388 1.6h.364a3.806 3.806 0 00.517-.037 1.574 1.574 0 00.483-.144.94.94 0 00.356-.3.86.86 0 00.14-.511.517.517 0 00-.261-.485 1.379 1.379 0 00-.681-.15zM72.486 23.6l1.022-4.243h2.516l-.117.5h-1.926l-.308 1.28h1.713l-.117.484h-1.7l-.37 1.483h2.068l-.117.5h-2.664zM8.2 16.322a8.16 8.16 0 118.2-8.16 8.19 8.19 0 01-8.2 8.16zm-1.5-5.021c.252.068.486.128.716.184l-.368 1.466.9.223.373-1.485a6.49 6.49 0 001.176.128 1.88 1.88 0 002-1.337 1.566 1.566 0 00-.827-2.173 1.435 1.435 0 001.149-1.306c.14-.934-.433-1.589-1.8-2.059l.368-1.472-.9-.223-.364 1.429c-.2-.049-.42-.1-.721-.168l.361-1.443-.9-.223L7.5 4.313l-.1-.022a23.21 23.21 0 01-.48-.113l-1.24-.312-.24.957c.24.054.646.149.654.16a.478.478 0 01.419.522l-.42 1.676h.016a.7.7 0 01.079.027l-.073-.019-.022-.005L5.5 9.536a.332.332 0 01-.3.225.453.453 0 01-.107-.013c-.038 0-.649-.16-.654-.162l-.45 1.025 1.171.29q.228.057.45.115l.192.05-.373 1.488.9.224.37-1.471zm1.957-.78a6.242 6.242 0 01-1.489-.253l-.174-.045.494-1.972.223.051c.566.127 1.618.362 1.966.926a.8.8 0 01.088.635c-.113.438-.485.663-1.111.663zm.4-2.93a4.883 4.883 0 01-1.2-.2l-.147-.038.448-1.788c.052.013.114.026.186.042.46.1 1.317.29 1.615.772a.756.756 0 01.08.6c-.101.41-.432.617-.982.622z"/></svg><svg viewBox="0 0 14 28" id="facebook" xmlns="http://www.w3.org/2000/svg"><path d="M9.083 28V15.229h4.129l.616-4.978H9.083V7.077c0-1.446.382-2.419 2.379-2.419H14V.192A32.324 32.324 0 0010.3 0C6.643 0 4.141 2.316 4.141 6.578v3.672H0v4.978h4.141V28z"/></svg><svg viewBox="0 0 34 22" id="google" xmlns="http://www.w3.org/2000/svg"><path d="M3.137 18.813A10.631 10.631 0 010 11a10.633 10.633 0 013.137-7.813A10.3 10.3 0 0110.827 0a10.074 10.074 0 017.286 2.878l-2.934 2.879a5.9 5.9 0 00-4.351-1.645 6.537 6.537 0 00-4.757 2.057A7.158 7.158 0 004.047 11.1a6.8 6.8 0 002.024 4.935 6.537 6.537 0 004.756 2.057 6.982 6.982 0 004.048-1.234A5.14 5.14 0 0017 13.364h-6.173v-3.8h10.22a11.443 11.443 0 01.2 1.85c0 3.187-.911 5.757-2.934 7.608A9.979 9.979 0 0110.827 22a10.3 10.3 0 01-7.69-3.187zm24.691-2.878v-3.187h-3.137V9.561h3.136V6.374h3.137v3.187H34v3.187h-3.035v3.187z"/></svg><svg viewBox="0 0 28 28" id="linkedin" xmlns="http://www.w3.org/2000/svg"><path d="M26.271 0H2.247A2.1 2.1 0 000 1.9v24.146A2.149 2.149 0 002.247 28h24.024A1.717 1.717 0 0028 26.046V1.9A1.671 1.671 0 0026.271 0z"/><path d="M15.273 23.547h-4.208c0-.1.056-11.457 0-12.728h4.207v1.732a4.459 4.459 0 013.926-2.104 4.742 4.742 0 013.545 1.4 6.152 6.152 0 011.443 4.331v7.369h-4.459v-6.882c0-1.91-.713-2.879-2.118-2.879a2.37 2.37 0 00-2.189 1.548 2.754 2.754 0 00-.148 1.031v7.181zm-7 0H4.455V10.819h3.817v12.726zM6.58 8.91h-.028a2.161 2.161 0 01-2.354-2.15 2.2 2.2 0 012.409-2.174 2.188 2.188 0 012.382 2.161A2.2 2.2 0 016.58 8.91z"/></svg><svg viewBox="0 0 65.468 50.921" id="mastercard" xmlns="http://www.w3.org/2000/svg"><path d="M63.737 50.595a.529.529 0 010-.416.537.537 0 01.292-.281.573.573 0 01.23-.04h-.007a.557.557 0 01.2.04.569.569 0 01.175.113.563.563 0 01.118.168.522.522 0 010 .416.567.567 0 01-.118.169.587.587 0 01-.175.113.527.527 0 01-.213.045.561.561 0 01-.502-.327zm-35.58.2c-1.382 0-1.866-.742-1.866-1.989v-2.47h-1.09v-1.068h1.067v-1.63h1.181v1.63h1.922l.012 1.067h-1.911v2.451c0 .539.213.9.775.9a2.168 2.168 0 001.034-.3l.337 1a2.742 2.742 0 01-1.452.416zm-8.542-.719l.563-.911a2.864 2.864 0 001.787.563c.8 0 1.226-.237 1.226-.652 0-.3-.3-.472-.945-.562l-.562-.078c-1.2-.169-1.855-.708-1.855-1.585 0-1.068.888-1.72 2.248-1.72a4.02 4.02 0 012.191.562l-.517.944a3.464 3.464 0 00-1.686-.461c-.641 0-1.023.27-1.023.63s.4.461.911.528l.562.078c1.169.171 1.876.588 1.876 1.61s-.9 1.753-2.451 1.753h-.109a3.877 3.877 0 01-2.216-.696zm21.713-.1a2.714 2.714 0 01-.812-2.038v-.017a2.713 2.713 0 012.866-2.811 2.807 2.807 0 011.933.641l-.562.944a2.356 2.356 0 00-1.4-.483 1.725 1.725 0 000 3.439 2.356 2.356 0 001.4-.483l.562.942a2.807 2.807 0 01-1.933.641h-.154a2.715 2.715 0 01-1.9-.769zm-8.237.777a2.81 2.81 0 11-.079-5.62l.017.011a2.555 2.555 0 012.552 2.811v.449h-3.996a1.49 1.49 0 001.606 1.315 2.558 2.558 0 001.562-.562l.563.865a3.264 3.264 0 01-2.064.735q-.082 0-.161-.004zm26.4 0a2.81 2.81 0 010-5.62 2.038 2.038 0 011.686.787v-2.81h1.114v7.508h-1.123v-.652a2.037 2.037 0 01-1.61.788zm-10.875 0a2.81 2.81 0 010-5.62 2.04 2.04 0 011.675.787v-.652h1.168v5.35h-1.168v-.652a2.04 2.04 0 01-1.611.788zm-32.96 0a2.81 2.81 0 010-5.62 2.039 2.039 0 011.686.787v-.652h1.169v5.35h-1.177v-.652a2.038 2.038 0 01-1.61.788zm-4.926-3.08c0-.91-.382-1.416-1.18-1.416a1.263 1.263 0 00-1.314 1.428v2.978H7.055v-2.99c0-.91-.393-1.416-1.169-1.416a1.259 1.259 0 00-1.315 1.428v2.955h-1.18v-5.372H4.56v.663a1.775 1.775 0 011.573-.8 1.971 1.971 0 011.776.955 2.082 2.082 0 011.888-.955 2 2 0 012.113 2.138v3.371l-1.18.023zm42.273 2.967v-5.372h1.158v.652a1.583 1.583 0 011.416-.787l-.023-.023a2.492 2.492 0 01.832.146l-.359 1.124a1.9 1.9 0 00-.731-.135c-.742 0-1.124.495-1.124 1.382v3.013zm-16.235 0v-5.372h1.157v.652a1.584 1.584 0 011.417-.787l-.023-.023a2.5 2.5 0 01.832.146l-.36 1.125a1.9 1.9 0 00-.731-.135c-.742 0-1.124.495-1.124 1.382v3.012z"/><path d="M25.005 20.238a20.2 20.2 0 017.727-15.91 20.231 20.231 0 100 31.814 20.2 20.2 0 01-7.727-15.9z" opacity=".4"/><path data-name="Shape" d="M65.469 20.237a20.231 20.231 0 01-32.736 15.904 20.231 20.231 0 007.73-15.907 20.231 20.231 0 00-7.73-15.907 20.231 20.231 0 0132.736 15.9z"/><path data-name="Combined Shape" d="M32.913 36.666a20.5 20.5 0 010-32.5 20.466 20.466 0 018 16.249 20.466 20.466 0 01-8 16.251z" opacity=".65"/><path data-name="Shape" d="M64.715 32.183l-.22.511h-.151l-.219-.511v.587h-.146v-.787h.18l.236.562.235-.562h.2v.787l-.115.005zm-1.299.587v-.652h-.286v-.135h.669v.135h-.264v.652z"/></svg><svg viewBox="0 0 73.986 17.923" id="ok-pay" xmlns="http://www.w3.org/2000/svg"><g data-name="OK Pay"><path data-name="Fill 1" d="M73.118 1.327h-1.129a2.114 2.114 0 00-1.675 1.077l-1.117 1.592-2.421 3.448-2.094-2.986c-.01-.015-.015-.029-.026-.044L63.24 2.408a2.126 2.126 0 00-1.681-1.076h-1.047c-.723 0-1.191.484-.772 1.074l1.421 2.01.01.012 4.046 5.712v6.467a1.317 1.317 0 001.314 1.315h.49a1.321 1.321 0 001.314-1.318v-6.47l4.31-6.084c.013-.017.031-.034.043-.053l1.127-1.6c.418-.586.025-1.07-.697-1.07"/><path data-name="Fill 3" d="M25.952 9.103l4.06-3.908 2.87-2.761c.515-.496-.037-1.107-.74-1.107h-1.544c-.7 0-1.058.406-1.57.9l-3.006 2.916-.007.008-1.933 1.876V4.9h-.009c0-.029.008-.056.008-.085V2.644a1.3 1.3 0 00-1.277-1.317h-.574a1.3 1.3 0 00-1.278 1.317v2.171c0 .029.006.056.008.085h-.008v11.7a1.3 1.3 0 001.278 1.317h.574a1.3 1.3 0 001.278-1.312v-5.241l2.755 2.835 2.715 2.793c.5.511.84.93 1.543.93h1.546a.788.788 0 00.5-1.368l-7.189-7.451"/><path data-name="Fill 4" d="M61.942 17.927h-1.04a1.613 1.613 0 01-1.424-1.236l-.152-.408-.95-2.532-.065-.135-.086-.227h-6.424l-1.059 2.82h-.01l-.177.477c-.227.611-.561 1.236-1.32 1.236h-1.176a.909.909 0 01-.789-.36.9.9 0 01-.039-.862l.2-.49 5.25-13.044h.009l.245-.614a2.1 2.1 0 011.807-1.225h.524a2.107 2.107 0 011.813 1.223l.248.616 5.277 13.113h-.008l.171.422a.827.827 0 01-.825 1.226zM55.002 5.77c-.095 0-.183.089-.249.252l-1.671 4.095a.412.412 0 00.411.609h3.025a.412.412 0 00.411-.609l-1.679-4.1c-.065-.157-.154-.247-.248-.247z"/><path data-name="Fill 5" d="M39.84 17.927h-.524a1.331 1.331 0 01-1.341-1.322V2.645a1.331 1.331 0 011.341-1.318h4.259a7.079 7.079 0 014.578 1.3 4.164 4.164 0 011.207 1.634 5.708 5.708 0 01.4 2.2 5.776 5.776 0 01-.4 2.217 4.142 4.142 0 01-1.208 1.634 7.087 7.087 0 01-4.577 1.3h-2.394v4.994a1.331 1.331 0 01-1.341 1.321zm2.012-13.964a.666.666 0 00-.671.659v3.694a.666.666 0 00.671.659h1.723a3.15 3.15 0 002.138-.648 1.98 1.98 0 00.536-.773 3.028 3.028 0 00.183-1.089 2.967 2.967 0 00-.183-1.078 1.967 1.967 0 00-.536-.772 3.145 3.145 0 00-2.138-.652z"/><path data-name="Fill 6" d="M11.49 17.923h-.04a7.707 7.707 0 01-5.952-2.455 8.455 8.455 0 01-2.013-4.21l-.18-1.417v-.009a9.727 9.727 0 01-.015-1.366V8.392l.136-1.413a8.529 8.529 0 012.073-4.516A7.688 7.688 0 0111.45 0h.04a7.661 7.661 0 015.934 2.463 9.323 9.323 0 012.219 6.5 9.326 9.326 0 01-2.219 6.493 7.661 7.661 0 01-5.934 2.467zM7.923 4.343a6.07 6.07 0 00-1.17 2.7l-.158 1.38v.332c0 .2 0 .42.006.6 0 .2.007.367.013.446l.205 1.382a5.9 5.9 0 001.111 2.4A4.173 4.173 0 009.461 14.8a4.731 4.731 0 002.01.4 4.708 4.708 0 002.005-.4 4.145 4.145 0 001.525-1.22 7.246 7.246 0 001.337-4.616 7.262 7.262 0 00-1.337-4.625 4.126 4.126 0 00-1.527-1.219 4.707 4.707 0 00-2.005-.4 4.73 4.73 0 00-2.01.4 4.124 4.124 0 00-1.534 1.225z"/><path data-name="Fill 8" d="M11.427 7.965H.655l1.013-1.991H12.44l-1.013 1.991"/><path data-name="Fill 9" d="M9.408 11.948H0l1.067-1.991h9.408l-1.067 1.991"/></g></svg><svg viewBox="0 0 29.995 29.993" id="reddit" xmlns="http://www.w3.org/2000/svg"><g data-name="2SL"><path d="M14.654 0A15 15 0 110 14.993 15 15 0 0114.654 0z"/><path data-name="Shape" d="M13.432 25.612a12.151 12.151 0 01-5.065-1.7 7.7 7.7 0 01-3.121-3.441 5.733 5.733 0 01-.385-3.282.224.224 0 00-.115-.263 2.717 2.717 0 01-1.289-1.869 2.54 2.54 0 013.1-2.948 8.171 8.171 0 011.3.566.246.246 0 00.29 0 11.417 11.417 0 014.12-1.732 11.669 11.669 0 012.514-.286c.167 0 .2-.089.239-.214q.676-2.157 1.358-4.312a.668.668 0 01.926-.541c1.256.268 2.511.532 3.765.806a.3.3 0 00.352-.113 2 2 0 013.244.274 1.965 1.965 0 01-1.452 2.883 2.015 2.015 0 01-2.251-1.464.385.385 0 00-.354-.32c-.968-.2-1.932-.411-2.9-.619-.076-.016-.155-.025-.252-.041-.4 1.258-.8 2.5-1.215 3.784l.666.069a11.453 11.453 0 015.239 1.828.181.181 0 00.258-.018 2.554 2.554 0 012.817-.384 2.489 2.489 0 011.529 2.171 2.559 2.559 0 01-1.181 2.382.453.453 0 00-.216.506 5.9 5.9 0 01-1.5 4.844 10.325 10.325 0 01-5.732 3.208 13.539 13.539 0 01-2.981.333 13.722 13.722 0 01-1.708-.107z"/></g></svg><svg viewBox="0 0 20.414 20.414" id="search" xmlns="http://www.w3.org/2000/svg"><g transform="translate(1 1)"><circle cx="7.5" cy="7.5" r="7.5"/><path d="M18 18l-5.2-5.2"/></g></svg><svg viewBox="0 0 28 23" id="twitter" xmlns="http://www.w3.org/2000/svg"><path d="M28 2.721a11.371 11.371 0 01-3.3.915A5.822 5.822 0 0027.227.425a11.5 11.5 0 01-3.65 1.41A5.7 5.7 0 0019.385 0a5.777 5.777 0 00-5.745 5.807 5.887 5.887 0 00.149 1.324A16.248 16.248 0 011.951 1.062a5.859 5.859 0 001.778 7.753 5.7 5.7 0 01-2.6-.729v.073a5.8 5.8 0 004.607 5.7 5.757 5.757 0 01-1.513.2 5.454 5.454 0 01-1.081-.108A5.756 5.756 0 008.5 17.984a11.443 11.443 0 01-7.13 2.482A12.073 12.073 0 010 20.387 16.105 16.105 0 008.8 23c10.566 0 16.342-8.85 16.342-16.526l-.019-.752A11.542 11.542 0 0028 2.721z"/></svg><svg data-name="ilo/light/announcements" viewBox="0 0 60 60" id="wifi" xmlns="http://www.w3.org/2000/svg"><g transform="translate(9.5 10)"><g data-name="Combined Shape" stroke-miterlimit="10"><path d="M34.46 40a1.3 1.3 0 01-1.275-1.265A32.412 32.412 0 002.135 7.641 1.3 1.3 0 01.87 6.366V1.231A1.231 1.231 0 012.135 0a39.85 39.85 0 0127 11.718 39.9 39.9 0 0111.712 27.017A1.23 1.23 0 0139.62 40zm-13.615 0a1.331 1.331 0 01-1.292-1.26 18.656 18.656 0 00-5.447-12.025A18.616 18.616 0 002.125 21.26 1.328 1.328 0 01.87 19.966v-5.133a1.213 1.213 0 011.255-1.222 26.266 26.266 0 0117.387 7.717 26.361 26.361 0 017.718 17.407A1.216 1.216 0 0126.012 40z"/><path d="M38.815 38c-.49-9.383-4.411-18.187-11.095-24.868C21.044 6.449 12.247 2.526 2.87 2.033v3.641C20.156 6.678 34.157 20.7 35.152 38h3.663m-13.637 0a24.38 24.38 0 00-7.081-15.259c-4.11-4.116-9.489-6.61-15.227-7.078v3.652a20.68 20.68 0 0112.651 5.988A20.71 20.71 0 0121.498 38h3.68m14.442 2h-5.16c-.693 0-1.248-.574-1.276-1.265C32.54 21.89 18.957 8.293 2.134 7.641 1.443 7.613.87 7.056.87 6.366V1.23c0-.69.572-1.253 1.265-1.23 10.522.332 20.03 4.74 27 11.717 6.967 6.965 11.382 16.49 11.712 27.017A1.23 1.23 0 0139.62 40zm-13.608 0h-5.167c-.69 0-1.248-.574-1.293-1.26-.302-4.547-2.21-8.797-5.447-12.025a18.616 18.616 0 00-11.98-5.455C1.437 21.213.87 20.656.87 19.966v-5.133c0-.692.567-1.252 1.255-1.222 6.777.317 12.89 3.212 17.387 7.717 4.51 4.513 7.393 10.63 7.718 17.407A1.216 1.216 0 0126.012 40z"/></g><circle data-name="Oval 3" cx="5.217" cy="5.217" r="5.217" transform="translate(0 29.565)"/></g></svg><svg data-name="sociai icons youtube" viewBox="0 0 41.429 29" id="youtube" xmlns="http://www.w3.org/2000/svg"><path d="M41.429 6.195A6.193 6.193 0 0035.237 0H6.191A6.193 6.193 0 000 6.195v16.61A6.193 6.193 0 006.191 29h29.046a6.193 6.193 0 006.191-6.195V6.195z"/><path d="M16.571 22.6V7l11.831 7.8z"/></svg></svg>