<svg id="amex_logo" xmlns="http://www.w3.org/2000/svg" xmlns:xlink="http://www.w3.org/1999/xlink" width="54.002" height="53.95" viewBox="0 0 54.002 53.95">
  <defs>
    <clipPath id="clip-path">
      <path id="bluebox-55x54-a" d="M0,0V22.1H53.965V0Z" transform="translate(0 0.058)" fill="none"/>
    </clipPath>
  </defs>
  <path id="Shape" d="M0,0V53.95H53.949V0Z" transform="translate(0.008)" fill="#889099"/>
  <g id="text" transform="translate(0 16.675)">
    <g id="Clipped">
      <path id="bluebox-55x54-a-2" data-name="bluebox-55x54-a" d="M0,0V22.1H53.965V0Z" transform="translate(0 0.058)" fill="none"/>
      <g id="Clipped-2" data-name="Clipped" clip-path="url(#clip-path)">
        <path id="Shape-2" data-name="Shape" d="M33.657,22.1,32.6,20.727V22.1H28.418V19.705a5.787,5.787,0,0,1-2.025.358h.063V22.1h-6l-.863-1.226L18.754,22.1H9.164V12.671H18.79l.844,1.208.854-1.208H53.965v8.846a3.741,3.741,0,0,1-.691.332,4.259,4.259,0,0,1-1.453.248Zm13.7-12.67-.881-1.4v1.4H40.641l-.517-1.354h-.962l-.508,1.354H35.175a5.524,5.524,0,0,1-.987-.087,4.718,4.718,0,0,1-.615-.153A4.431,4.431,0,0,1,33.088,9a3.906,3.906,0,0,1-.464-.257v.686H26.81L25.757,8.056V9.427H4.723L4.2,8.074H3.243L2.734,9.427H0V4.033L1.726,0H5.585L6.44,1.927V0h4.731l.563,1.644L12.289,0H32.623V.737a4.071,4.071,0,0,1,.559-.311,4.5,4.5,0,0,1,.517-.2,4.816,4.816,0,0,1,.7-.162A5.675,5.675,0,0,1,35.275,0h6.231l.844,1.906V0h3.769l.962,1.508V0H51.4V9.427Z" transform="translate(0 0.058)" fill="#323642"/>
      </g>
    </g>
    <g id="Group" transform="translate(10.3 14.223)">
      <path id="Shape-3" data-name="Shape" d="M37.954,6.358V5.086h3.261a.606.606,0,0,0,.626-.644.589.589,0,0,0-.626-.618H39.752a1.766,1.766,0,0,1-1.98-1.843A1.969,1.969,0,0,1,39.961,0h3.28l-.564,1.29h-2.76a.6.6,0,0,0-.617.635.579.579,0,0,0,.617.609h1.472a1.731,1.731,0,0,1,1.97,1.8,1.978,1.978,0,0,1-2.189,2.026Zm-6.048,0V5.086h3.26a.606.606,0,0,0,.626-.644.589.589,0,0,0-.626-.618H33.7A1.766,1.766,0,0,1,31.723,1.98,1.97,1.97,0,0,1,33.912,0h3.28l-.563,1.29H33.867a.6.6,0,0,0-.617.635.579.579,0,0,0,.617.609h1.472a1.731,1.731,0,0,1,1.971,1.8,1.978,1.978,0,0,1-2.19,2.026Zm-6.013,0V0h5.086V1.29H27.419V2.525H30.9V3.8H27.419V5.077h3.559V6.358Zm-2.606,0-1.9-2.289h-.717V6.358H19.145V0H22.6a1.988,1.988,0,0,1,2.2,2.016,1.971,1.971,0,0,1-1.725,2l2.116,2.344Zm-10.662,0V0h3.5a2.032,2.032,0,0,1,2.2,2.125,2.082,2.082,0,0,1-2.253,2.134H14.15v2.1Zm-2.244,0L8.819,4.314,7.257,6.358H5.4L7.938,3.179,5.395,0H7.3L8.855,2.016,10.418,0H12.27L9.736,3.152l2.552,3.206ZM0,6.358V0H5.086V1.29H1.526V2.525H5V3.8H1.526V5.077h3.56V6.358Z" transform="translate(0.344 0.04)" fill="#889099"/>
    </g>
    <path id="Shape-4" data-name="Shape" d="M47.944,6.358,45.51,2.552l-.319-.526.019.526V6.358h-1.49V0h1.87l2.381,3.678.281.473-.018-.473V0h1.49V6.358Zm-6.294,0L41.1,4.995H38.081l-.535,1.363H35.92L38.643,0h2.008l2.715,6.358Zm-6.657,0A2.824,2.824,0,0,1,32.06,3.234V3.125A2.871,2.871,0,0,1,35.093,0h1.78V1.372H35.221a1.582,1.582,0,0,0-1.644,1.762v.091A1.577,1.577,0,0,0,35.239,5H35.7l-.626,1.353Zm-5.422,0V0H31.1V6.358Zm-2.38,0-1.9-2.289h-.717V6.358H23.05V0H26.5a1.989,1.989,0,0,1,2.2,2.017,1.971,1.971,0,0,1-1.726,2L29.09,6.358Zm-10.345,0V0h5.086V1.29H18.374V2.525h3.478V3.8H18.374V5.059h3.559v1.3Zm-2.733,0V2.007L14.15.337,12.389,6.358H11.008L9.246.3l.037,1.716V6.358H7.8V0h2.679L11.7,4.5,12.906,0h2.688V6.358Zm-8.383,0L5.186,4.995H2.162L1.625,6.358H0L2.725,0H4.732L7.448,6.358Z" transform="translate(0.027 1.592)" fill="#889099"/>
  </g>
</svg>
